<svg version="1.0" xmlns="http://www.w3.org/2000/svg"
 width="900.000000pt" height="512.000000pt" viewBox="0 0 900.000000 512.000000"
 preserveAspectRatio="xMidYMid meet">

<g transform="translate(0.000000,512.000000) scale(0.100000,-0.100000)"
fill="#fe676c" stroke="none">
<path d="M2360 4708 c-26 -14 -53 -37 -65 -58 -20 -35 -20 -48 -23 -2125 -2
-1149 0 -2109 3 -2132 4 -24 17 -56 32 -73 55 -66 -82 -61 1738 -61 1794 0
1679 -4 1732 53 37 40 43 73 43 249 l0 169 -155 0 -155 0 0 -80 0 -80 -1462 0
-1463 0 2 1878 c1 1032 2 1898 2 1925 l1 47 1163 -2 1162 -3 5 -265 c3 -146 9
-271 14 -279 23 -35 70 -41 326 -41 l250 0 0 -395 0 -395 155 0 155 0 0 458
c0 426 -1 460 -18 494 -25 47 -671 686 -724 716 l-41 22 -1316 0 -1317 0 -44
-22z"/>
<path d="M3557 2725 c-48 -16 -83 -48 -108 -97 -18 -36 -19 -69 -19 -733 0
-671 1 -697 20 -734 24 -48 70 -87 118 -101 51 -14 2933 -14 2984 0 48 14 94
53 118 101 19 37 20 63 20 734 0 671 -1 697 -20 734 -24 48 -70 87 -118 101
-25 6 -522 10 -1497 10 -1211 -1 -1467 -3 -1498 -15z m782 -406 c74 -11 113
-29 159 -73 60 -56 77 -100 77 -201 0 -78 -4 -98 -26 -140 -14 -28 -44 -64
-67 -82 -65 -49 -125 -63 -279 -63 l-133 0 0 -160 0 -160 -95 0 -95 0 0 445 0
445 198 -1 c108 0 226 -5 261 -10z m873 -12 c114 -37 195 -112 239 -224 20
-50 23 -76 23 -193 0 -118 -3 -142 -23 -195 -33 -82 -75 -138 -135 -180 -91
-62 -116 -67 -378 -72 l-238 -5 0 446 0 446 233 -4 c175 -2 244 -7 279 -19z
m1022 -62 l1 -80 -212 -3 -213 -2 0 -100 0 -100 185 0 185 0 0 -75 0 -75 -185
0 -185 0 0 -185 0 -186 -97 3 -98 3 -3 430 c-1 237 0 436 3 443 3 9 72 12 311
10 l307 -3 1 -80z"/>
<path d="M4070 2040 l0 -130 93 0 c121 1 165 12 200 50 21 24 27 40 27 78 0
105 -43 132 -207 132 l-113 0 0 -130z"/>
<path d="M4900 1884 l0 -276 123 3 c142 5 179 20 222 94 50 85 53 252 5 345
-41 80 -110 110 -257 110 l-93 0 0 -276z"/>
</g>
</svg>
